<svg viewBox="0 0 215 43" fill="none" xmlns="http://www.w3.org/2000/svg"><path fill-rule="evenodd" clip-rule="evenodd" d="M46.199 33.743c4.861 0 8.4-2.795 8.4-8.724V8.099h-5.112v16.844c0 2.417-1.465 4.041-3.717 4.041-1.644 0-2.86-.868-3.789-1.813l-2.216 4.08c1.716 1.774 4.003 2.492 6.434 2.492Zm32.559 0c7.256 0 10.759-4.306 10.759-10.537V8.098h-5.183v14.957c0 3.512-1.894 5.93-5.576 5.93-3.682 0-5.612-2.418-5.612-5.93V8.098H68v15.108c0 6.232 3.503 10.537 10.759 10.537Zm37.671-.453h5.862l-5.398-9.593c2.574-.642 5.255-3.06 5.255-7.478 0-4.684-3.074-8.12-8.043-8.12h-11.152v25.19h5.076v-8.95h3.717l4.683 8.95Zm-3.039-13.672c2.002 0 3.539-1.284 3.539-3.437 0-2.078-1.537-3.362-3.539-3.362h-5.361v6.799h5.361Zm37.743 13.672h5.754l-9.186-25.192h-6.362l-9.186 25.192h5.754l1.502-4.268h10.222l1.502 4.268Zm-2.896-8.989-3.717-10.84-3.717 10.84h7.434Zm27.913-11.482v20.47h-5.112V12.82h-6.97V8.1h19.016v4.72h-6.934ZM215 33.29h-5.755l-1.501-4.267h-10.223l-1.501 4.268h-5.755l9.186-25.192h6.363L215 33.29Zm-12.367-19.828 3.717 10.84h-7.435l3.718-10.84Z" fill="#fff"/><path d="M12 9.556 22 0v33.444L12 43V9.556ZM0 32l11 11V32L0 21v11Z" fill="#fff"/><path d="M11 43V31.429L4 25l7 18Z" fill="#E6E6E6"/></svg>